<svg width="124" height="84" viewBox="0 0 124 84" fill="none" xmlns="http://www.w3.org/2000/svg">
  <path d="M0.799805 27.3V59C0.799805 60.5 1.99981 61.6 3.39981 61.6H23.6998C24.1998 61.6 24.6998 61.7 25.0998 62L57.2998 83.1C59.0998 84.2 61.3998 83 61.3998 80.9V3.50002C61.3998 1.40002 58.9998 0.100017 57.1998 1.40002L25.1998 24.3C24.7998 24.6 24.1998 24.8 23.6998 24.8H3.49981C1.99981 24.7 0.799805 25.9 0.799805 27.3ZM78.0998 62.8C77.3998 62.8 76.6998 62.6 76.0998 62.3C74.2998 61.2 73.6998 58.8 74.6998 57C82.8998 43.1 75.0998 31 74.7998 30.5C73.5998 28.7 74.0998 26.3 75.8998 25.1C77.6998 23.9 80.0998 24.4 81.2998 26.2C81.7998 26.9 92.1998 42.8 81.3998 61C80.6998 62.1 79.3998 62.8 78.0998 62.8ZM93.1998 72C92.3998 72 91.5998 71.8 90.8998 71.3C89.1998 70.1 88.6998 67.6 89.9998 65.9C106.9 42.3 90.3998 22.6 90.1998 22.4C88.7998 20.8 88.9998 18.3 90.5998 16.9C92.1998 15.5 94.6998 15.7 96.0998 17.3C96.2998 17.5 116.7 41.9 96.2998 70.4C95.5998 71.4 94.3998 72 93.1998 72Z" fill="white" />
  <path d="M107.3 80.9C106.5 80.9 105.6 80.6 104.9 80.1C103.2 78.8 102.9 76.3 104.2 74.6C129.7 42.1 105.4 13.1 104.3 11.9C102.9 10.3 103.1 7.79997 104.7 6.39997C106.3 4.99997 108.8 5.19997 110.2 6.79997C110.5 7.09997 139.8 41.9 110.3 79.4C109.6 80.4 108.5 80.9 107.3 80.9Z" fill="white" />
</svg>